<?xml version="1.0" standalone="no"?>
<!DOCTYPE svg PUBLIC "-//W3C//DTD SVG 20010904//EN"
 "http://www.w3.org/TR/2001/REC-SVG-20010904/DTD/svg10.dtd">
<svg version="1.0" xmlns="http://www.w3.org/2000/svg"
 width="1024.000000pt" height="1024.000000pt" viewBox="0 0 1024.000000 1024.000000"
 preserveAspectRatio="xMidYMid meet">

<g transform="translate(0.000000,1024.000000) scale(0.100000,-0.100000)"
fill="#000000" stroke="none">
<path d="M2611 8884 c0 -11 3 -14 6 -6 3 7 2 16 -1 19 -3 4 -6 -2 -5 -13z"/>
<path d="M2632 8790 c0 -14 2 -19 5 -12 2 6 2 18 0 25 -3 6 -5 1 -5 -13z"/>
<path d="M2830 8787 c0 -2 14 -16 30 -32 36 -35 40 -29 5 9 -21 23 -35 32 -35
23z"/>
<path d="M2641 8744 c0 -11 3 -14 6 -6 3 7 2 16 -1 19 -3 4 -6 -2 -5 -13z"/>
<path d="M3030 8595 c30 -30 57 -55 59 -55 3 0 -19 25 -49 55 -30 30 -57 55
-59 55 -3 0 19 -25 49 -55z"/>
<path d="M3150 8485 c19 -19 36 -35 39 -35 3 0 -10 16 -29 35 -19 19 -36 35
-39 35 -3 0 10 -16 29 -35z"/>
<path d="M2700 8421 c0 -11 4 -22 9 -25 4 -3 6 6 3 19 -5 30 -12 33 -12 6z"/>
<path d="M3205 8430 c7 -14 85 -87 85 -78 0 2 -21 24 -46 48 -25 25 -42 38
-39 30z"/>
<path d="M3326 8320 c21 -28 194 -196 194 -189 0 2 -48 52 -106 109 -59 58
-98 94 -88 80z"/>
<path d="M2835 8260 c3 -5 8 -10 11 -10 2 0 4 5 4 10 0 6 -5 10 -11 10 -5 0
-7 -4 -4 -10z"/>
<path d="M2960 8146 c0 -2 8 -10 18 -17 15 -13 16 -12 3 4 -13 16 -21 21 -21
13z"/>
<path d="M3530 8120 c0 -5 5 -10 11 -10 5 0 7 5 4 10 -3 6 -8 10 -11 10 -2 0
-4 -4 -4 -10z"/>
<path d="M4078 8102 c14 -21 48 -46 64 -47 3 0 10 -4 15 -9 5 -5 3 -6 -4 -2
-32 18 -3 -16 78 -93 79 -75 90 -83 105 -70 16 13 16 12 6 -7 -10 -19 -4 -29
62 -93 l74 -71 639 0 c362 0 687 -4 749 -10 231 -22 424 -76 629 -175 369
-179 643 -455 825 -830 106 -218 159 -443 167 -705 10 -323 -47 -578 -194
-860 -77 -150 -164 -274 -274 -393 -211 -228 -452 -382 -751 -482 -152 -50
-270 -73 -413 -80 -194 -9 -1160 -14 -1173 -6 -11 6 -13 234 -11 1242 1 679
-1 1257 -5 1284 -29 194 -118 408 -231 554 -65 85 -312 321 -329 315 -8 -3
-17 -1 -21 5 -4 7 1 9 12 5 28 -10 -495 498 -535 520 -10 5 0 -7 22 -26 30
-28 37 -40 32 -59 -3 -13 -3 -18 0 -11 3 6 11 12 18 12 17 0 86 -77 77 -86 -3
-4 0 -4 8 1 18 10 29 -10 23 -42 -4 -19 -7 -22 -14 -11 -8 10 -9 10 -5 -2 2
-8 12 -15 23 -15 10 0 26 -4 34 -9 12 -8 12 -6 -1 10 -62 75 2 21 166 -139
l60 -59 -42 21 c-23 11 -49 31 -57 42 -8 12 -26 23 -39 25 -20 2 -26 -3 -31
-27 -3 -16 -9 -29 -13 -28 -5 1 -29 1 -55 0 -46 -1 -48 -2 -48 -31 0 -28 -3
-30 -35 -30 -33 0 -35 -2 -35 -33 0 -24 -7 -36 -27 -49 l-26 -16 31 -7 c29 -6
46 -25 22 -25 -5 0 -10 -5 -10 -10 0 -6 10 -9 23 -7 12 2 16 2 9 0 -7 -3 -9
-10 -5 -16 4 -7 -4 -5 -17 4 -14 10 -24 24 -22 33 2 10 -4 16 -17 16 -11 0
-31 15 -45 32 -24 32 -25 33 -6 40 11 4 20 10 20 13 0 4 -5 3 -10 0 -6 -4 -22
1 -36 10 -13 9 -28 14 -32 11 -4 -3 -34 22 -65 54 -32 32 -54 60 -50 62 5 3 3
4 -4 2 -15 -4 -47 32 -39 44 3 5 -2 9 -12 8 -9 0 -16 5 -14 12 1 8 -1 11 -6 8
-10 -6 -68 55 -64 67 1 5 -2 6 -7 3 -5 -3 -20 6 -35 21 -14 14 -26 23 -26 19
0 -3 158 -164 350 -356 224 -224 355 -348 363 -344 6 4 9 3 4 -1 -4 -5 35 -52
86 -104 51 -53 114 -126 140 -162 48 -67 98 -181 116 -259 6 -28 11 -582 13
-1496 l3 -1452 655 -7 c705 -8 942 -4 1115 20 472 66 895 276 1236 615 333
331 527 697 619 1175 31 160 39 463 15 645 -93 732 -543 1370 -1197 1696 -219
110 -415 169 -688 211 -103 16 -211 17 -1031 18 l-916 0 15 -23z m55 -12 c4 0
6 4 3 8 -8 13 47 13 56 0 6 -10 10 -10 18 2 8 11 9 7 4 -15 -4 -16 -13 -33
-20 -38 -8 -4 -10 -15 -7 -25 6 -15 5 -15 -10 -3 -16 13 -16 16 -1 38 19 31
12 40 -21 25 -29 -14 -55 -6 -55 16 0 12 3 13 12 4 7 -7 16 -12 21 -12z m117
-117 c0 -7 -39 17 -46 28 -3 6 5 3 20 -6 14 -10 26 -19 26 -22z m24 -17 c-21
-15 -30 -14 -19 3 3 6 14 11 23 11 13 0 13 -2 -4 -14z m143 -143 c-4 -3 1 -16
10 -27 18 -21 18 -21 -4 -2 -20 16 -23 36 -6 36 4 0 3 -3 0 -7z m-467 -169 c0
-8 -4 -14 -10 -14 -5 0 -10 9 -10 21 0 11 5 17 10 14 6 -3 10 -13 10 -21z m80
-17 c0 -7 -4 -6 -10 3 -8 13 -9 13 -14 0 -2 -8 -7 -23 -10 -32 -3 -11 -11 -15
-21 -12 -24 10 -17 39 13 50 30 12 42 9 42 -9z m-500 -29 c0 -6 -6 -5 -15 2
-8 7 -15 14 -15 16 0 2 7 1 15 -2 8 -4 15 -11 15 -16z m535 2 c3 -5 1 -10 -4
-10 -6 0 -11 5 -11 10 0 6 2 10 4 10 3 0 8 -4 11 -10z m-355 -135 c-7 -8 -17
-15 -22 -15 -11 0 14 29 26 30 5 0 3 -7 -4 -15z m1 -38 c-10 -9 -11 -8 -5 6 3
10 9 15 12 12 3 -3 0 -11 -7 -18z m49 -12 c0 -2 -10 -10 -22 -16 -21 -11 -22
-11 -9 4 13 16 31 23 31 12z m30 -45 c0 -5 -2 -10 -4 -10 -3 0 -8 5 -11 10 -3
6 -1 10 4 10 6 0 11 -4 11 -10z m104 -108 c2 -4 -4 -8 -14 -8 -10 0 -16 4 -14
8 3 4 9 8 14 8 5 0 11 -4 14 -8z"/>
<path d="M3000 8096 c0 -2 8 -10 18 -17 15 -13 16 -12 3 4 -13 16 -21 21 -21
13z"/>
<path d="M3048 8055 c11 -22 48 -58 72 -69 8 -4 4 2 -10 14 -14 11 -36 33 -48
48 -15 17 -20 20 -14 7z"/>
<path d="M3140 7956 c0 -2 8 -10 18 -17 15 -13 16 -12 3 4 -13 16 -21 21 -21
13z"/>
<path d="M3680 7930 c0 -5 5 -10 11 -10 5 0 7 5 4 10 -3 6 -8 10 -11 10 -2 0
-4 -4 -4 -10z"/>
<path d="M3810 7801 c0 -5 9 -11 21 -14 16 -4 18 -3 8 9 -13 16 -29 19 -29 5z"/>
<path d="M3800 7769 c11 -19 35 -25 44 -11 3 4 -8 13 -24 19 -28 10 -29 10
-20 -8z"/>
<path d="M3556 7262 c-32 -55 -46 -90 -46 -115 0 -26 -6 -39 -20 -47 -13 -7
-20 -21 -20 -40 0 -35 -17 -48 -34 -25 -11 16 -18 16 -111 0 -199 -34 -335
-90 -461 -191 -38 -31 -84 -62 -101 -70 -18 -8 -48 -20 -67 -28 -18 -8 -49
-28 -69 -45 -59 -52 -82 -30 -28 27 33 37 26 42 -56 42 -46 0 -54 3 -51 18 2
9 18 21 36 27 36 10 43 25 12 25 -35 0 -85 -26 -112 -59 -42 -49 -63 -39 -34
17 22 43 63 75 103 81 l37 6 -69 50 c-39 27 -109 84 -157 127 -110 99 -135
103 -84 15 37 -64 79 -247 56 -247 -16 0 -154 120 -173 151 -15 24 -14 28 10
70 l26 44 -42 -40 c-27 -26 -41 -48 -41 -65 0 -38 219 -323 237 -309 10 9 15
5 23 -15 6 -18 17 -26 33 -26 27 0 64 -34 49 -44 -6 -3 -39 -15 -74 -26 -34
-11 -88 -35 -118 -54 -30 -19 -75 -47 -100 -62 -48 -30 -89 -35 -170 -22 -59
10 -75 -1 -74 -52 2 -57 -27 -52 -40 8 -11 47 -27 53 -54 21 -52 -65 -61 -73
-68 -67 -4 5 -2 25 6 47 9 29 10 43 1 59 -13 24 -61 52 -88 52 -11 -1 -7 -6
12 -14 17 -7 39 -25 48 -39 16 -25 16 -28 -3 -71 -25 -58 -54 -63 -76 -11 -18
45 -19 42 17 60 39 21 33 29 -9 13 -24 -9 -39 -10 -59 -1 -68 26 -70 27 -47 6
11 -10 24 -30 27 -45 20 -77 99 -120 216 -118 91 2 152 -12 376 -87 146 -49
183 -58 262 -61 88 -4 94 -6 124 -36 82 -83 65 -191 -47 -297 -99 -94 -233
-161 -425 -214 -201 -56 -297 -88 -364 -122 -112 -55 -105 -63 18 -22 183 61
437 107 437 79 0 -14 -45 -35 -173 -81 -187 -68 -329 -143 -403 -211 -36 -34
-62 -63 -59 -66 2 -3 35 -10 72 -17 38 -7 136 -26 218 -43 83 -17 182 -33 220
-37 88 -8 217 9 305 41 75 27 90 29 90 13 0 -15 -119 -67 -209 -91 -154 -41
-393 -22 -539 42 -25 11 -47 18 -49 16 -11 -10 76 -61 227 -134 214 -103 236
-127 153 -172 l-38 -20 50 6 c181 20 319 68 455 155 72 46 180 148 226 213 28
39 50 27 28 -16 -28 -53 -175 -193 -267 -252 -143 -93 -358 -182 -490 -201
-26 -4 -49 -11 -52 -15 -3 -4 43 -20 102 -34 59 -15 129 -36 155 -48 45 -19
90 -60 100 -90 3 -8 51 28 123 90 65 56 122 102 126 102 22 0 2 -34 -91 -153
-55 -70 -100 -129 -100 -131 0 -2 13 -6 29 -9 68 -14 117 -84 165 -237 26 -81
67 -160 84 -160 18 0 173 175 238 267 16 24 35 43 42 43 18 0 16 -4 -30 -93
-32 -61 -68 -108 -139 -182 l-96 -101 -7 -83 c-4 -45 -5 -85 -3 -88 3 -2 62
58 132 135 362 400 555 716 643 1057 22 85 26 122 27 250 0 166 -15 236 -77
360 -58 114 -169 253 -266 332 l-47 38 43 -50 c150 -172 242 -389 242 -569 0
-100 -37 -256 -60 -256 -5 0 -6 72 -3 160 5 130 3 177 -12 248 -19 96 -94 262
-144 322 l-30 35 32 -65 c28 -56 32 -76 35 -160 3 -84 0 -106 -27 -190 -17
-52 -40 -110 -51 -127 -21 -35 -46 -45 -36 -15 3 9 19 55 35 102 40 111 43
222 9 320 -19 55 -35 78 -101 144 l-79 79 20 41 c50 101 78 235 90 431 9 128
9 131 47 185 20 30 58 97 83 148 47 95 140 212 169 212 10 0 13 -6 9 -16 -3
-9 -3 -14 1 -12 5 2 33 16 65 30 31 15 62 36 70 46 7 11 31 22 56 27 46 7 102
47 102 72 0 8 14 31 30 50 27 30 30 41 30 98 0 49 -4 66 -16 73 -12 6 -15 18
-12 36 3 14 4 26 3 26 -2 0 -24 -35 -49 -78z m-178 -264 c-2 -14 -11 -24 -23
-26 -59 -10 -127 -35 -155 -58 -17 -15 -49 -63 -72 -108 -22 -44 -53 -99 -69
-122 -42 -61 -339 -356 -344 -342 -12 37 -22 124 -15 132 13 13 27 -1 34 -36
l6 -33 143 145 c133 135 147 153 202 259 71 135 104 167 203 192 89 24 94 23
90 -3z m-896 -471 c47 -36 108 -128 108 -164 0 -37 -15 -27 -58 40 -23 34 -59
80 -81 101 -36 36 -44 56 -21 56 5 0 28 -15 52 -33z m-168 -39 c-4 -18 -8 -58
-9 -88 -1 -40 -6 -55 -16 -55 -19 0 -25 120 -8 152 20 36 42 30 33 -9z m-250
-174 c30 -55 32 -67 9 -62 -21 4 -63 64 -63 89 0 34 28 20 54 -27z"/>
<path d="M5380 5885 c0 -393 -1 -718 -2 -722 -4 -12 407 -15 512 -4 189 20
323 83 450 211 148 147 213 309 212 520 0 100 -4 127 -30 205 -82 250 -265
421 -519 486 -66 16 -112 19 -350 19 l-273 0 0 -715z"/>
<path d="M6845 3014 c-41 -15 -80 -46 -96 -77 -7 -12 -139 -765 -139 -791 0
-2 33 3 73 10 115 21 361 29 469 15 90 -12 259 -61 285 -83 7 -6 13 -8 13 -6
0 3 -56 195 -124 427 -88 300 -131 430 -146 446 -22 23 -77 51 -85 43 -2 -2 2
-28 10 -58 7 -30 16 -95 20 -145 8 -119 22 -188 52 -255 32 -70 33 -137 4
-183 -37 -60 -76 -56 -110 11 -27 53 -33 101 -21 163 34 171 -5 477 -63 493
-37 10 -100 5 -142 -10z"/>
<path d="M4020 3004 c-183 -49 -294 -203 -316 -441 -13 -141 44 -312 129 -389
68 -62 138 -88 248 -92 111 -5 187 12 260 59 25 16 55 29 67 29 21 0 22 5 22
80 0 112 16 146 74 162 25 6 43 15 40 20 -7 11 -361 10 -368 -1 -3 -5 11 -11
32 -15 20 -3 47 -13 59 -21 28 -20 46 -84 37 -133 -31 -173 -225 -219 -348
-82 -73 82 -111 201 -110 355 2 217 100 412 227 450 28 8 60 15 71 15 46 0
100 -24 140 -60 42 -39 101 -144 113 -201 19 -97 30 60 14 206 -6 56 -7 59
-19 36 -16 -27 -30 -26 -137 13 -80 29 -152 32 -235 10z"/>
<path d="M1820 2990 c0 -5 12 -10 26 -10 16 0 39 -13 59 -33 31 -31 33 -38 40
-129 4 -53 5 -212 3 -354 -3 -223 -6 -264 -21 -292 -10 -18 -28 -37 -40 -41
-77 -30 -72 -30 223 -28 294 2 295 2 350 28 77 36 112 68 149 138 77 146 78
335 3 495 -58 121 -161 202 -286 225 -76 14 -506 15 -506 1z m483 -43 c237
-108 304 -538 117 -751 -67 -76 -179 -105 -263 -68 -83 37 -82 31 -85 471 l-3
384 91 -6 c65 -4 105 -13 143 -30z"/>
<path d="M3000 2992 c0 -5 17 -13 37 -18 26 -6 45 -20 61 -44 l23 -34 -3 -357
-3 -358 -28 -29 c-16 -17 -43 -34 -60 -38 -38 -10 104 -16 260 -12 l98 3 -44
15 c-25 8 -53 27 -65 43 -20 28 -21 39 -21 375 0 379 3 400 56 427 15 8 37 15
49 15 11 0 20 5 20 10 0 6 -70 10 -190 10 -104 0 -190 -4 -190 -8z"/>
<path d="M4830 2990 c0 -5 8 -10 18 -10 9 0 31 -9 49 -20 51 -30 54 -60 51
-434 -3 -322 -4 -336 -24 -363 -12 -15 -41 -36 -65 -45 -44 -17 -43 -17 151
-17 l195 0 -45 22 c-81 40 -81 40 -78 439 3 334 4 348 24 375 12 16 36 32 57
37 74 19 33 26 -148 26 -117 0 -185 -4 -185 -10z"/>
<path d="M5490 2936 c0 -34 -3 -92 -6 -127 -8 -76 4 -70 30 14 32 105 95 145
241 150 l70 2 0 -385 c0 -352 -2 -388 -18 -418 -10 -18 -28 -37 -40 -41 -75
-29 -72 -30 123 -30 181 0 192 1 156 15 -22 8 -48 21 -57 30 -33 30 -39 106
-39 470 0 310 2 355 15 361 27 10 172 -14 212 -34 46 -24 78 -69 101 -142 l17
-56 3 55 c2 30 1 88 -3 128 l-7 72 -399 0 -399 0 0 -64z"/>
<path d="M7670 2992 c0 -5 16 -13 37 -18 21 -5 45 -21 57 -37 20 -28 21 -39
21 -387 0 -346 -1 -360 -21 -386 -20 -28 -28 -33 -74 -52 -18 -8 74 -11 326
-11 l351 -1 7 77 c9 107 8 193 -3 193 -5 0 -11 -18 -15 -41 -9 -59 -43 -125
-82 -158 -43 -39 -102 -54 -186 -49 -76 4 -110 23 -143 79 -19 32 -20 52 -20
371 0 326 1 337 21 365 12 16 36 32 57 37 74 19 33 26 -148 26 -102 0 -185 -4
-185 -8z"/>
<path d="M6685 2958 c-35 -32 -38 -41 -145 -458 -60 -233 -108 -426 -106 -427
8 -8 136 61 140 75 3 9 28 157 56 327 27 171 55 342 61 380 7 39 20 85 30 103
10 17 14 32 9 32 -6 0 -26 -15 -45 -32z"/>
</g>
</svg>
