<?xml version="1.0" standalone="no"?>
<!DOCTYPE svg PUBLIC "-//W3C//DTD SVG 20010904//EN"
 "http://www.w3.org/TR/2001/REC-SVG-20010904/DTD/svg10.dtd">
<svg version="1.0" xmlns="http://www.w3.org/2000/svg"
 width="512.000000pt" height="512.000000pt" viewBox="0 0 512.000000 512.000000"
 preserveAspectRatio="xMidYMid meet">

<g transform="translate(0.000000,512.000000) scale(0.100000,-0.100000)"
fill="#000000" stroke="none">
<path d="M1369 4219 c5 -6 7 -19 4 -28 -5 -13 -3 -14 8 -3 11 10 10 15 -4 27
-9 8 -13 10 -8 4z"/>
<path d="M1430 4155 c19 -19 36 -35 39 -35 3 0 -10 16 -29 35 -19 19 -36 35
-39 35 -3 0 10 -16 29 -35z"/>
<path d="M1392 4080 c0 -14 2 -19 5 -12 2 6 2 18 0 25 -3 6 -5 1 -5 -13z"/>
<path d="M1625 3970 c44 -44 82 -80 85 -80 2 0 -31 36 -75 80 -44 44 -82 80
-85 80 -2 0 31 -36 75 -80z"/>
<path d="M1411 3974 c0 -11 3 -14 6 -6 3 7 2 16 -1 19 -3 4 -6 -2 -5 -13z"/>
<path d="M1421 3930 c-1 -8 162 -179 362 -380 333 -334 366 -370 388 -425 l24
-60 3 -738 3 -738 452 3 452 4 100 27 c386 106 681 401 786 785 27 99 37 339
19 450 -65 408 -354 744 -750 870 -148 47 -212 52 -708 52 l-456 0 44 -45 c41
-42 78 -64 50 -30 -11 13 -10 14 4 9 9 -3 15 -14 14 -23 -2 -10 3 -15 12 -13
8 2 12 0 7 -4 -4 -4 14 -29 40 -56 l47 -48 367 0 c359 0 369 -1 463 -25 323
-84 569 -333 648 -655 29 -116 28 -302 -1 -415 -23 -89 -83 -220 -133 -293
-109 -160 -288 -289 -483 -348 -89 -28 -92 -28 -432 -32 l-343 -3 0 633 c0
705 0 702 -67 832 -27 52 -63 96 -131 164 -52 51 -98 89 -104 86 -6 -4 -8 -3
-5 3 6 9 -328 338 -363 358 -8 4 31 -36 87 -90 57 -54 100 -102 97 -107 -3 -4
0 -7 8 -6 7 2 12 -3 10 -9 -1 -7 4 -13 11 -13 8 0 22 -10 33 -22 10 -12 14
-18 7 -15 -6 4 -14 3 -17 -2 -3 -5 1 -11 8 -14 8 -3 16 -1 19 6 2 6 16 -1 33
-18 28 -27 28 -28 3 -12 -24 14 -29 14 -62 -1 -20 -9 -36 -23 -37 -29 0 -7 -9
-13 -21 -13 -14 0 -19 -5 -16 -14 3 -8 1 -16 -6 -19 -6 -2 6 -20 27 -41 20
-21 33 -37 28 -35 -19 7 -504 484 -512 504 -6 13 -9 15 -9 5z m748 -169 c7 -5
10 -14 7 -20 -4 -6 -12 -9 -17 -5 -5 3 -7 9 -4 14 3 5 -3 11 -12 13 -13 3 -14
5 -3 6 8 0 21 -3 29 -8z m-110 -227 c12 8 15 -6 4 -17 -8 -9 -33 12 -33 27 0
6 4 5 9 -3 5 -7 14 -10 20 -7z"/>
<path d="M1840 3338 c-10 -24 -25 -57 -32 -75 -10 -27 -16 -31 -38 -26 -58 11
-206 -44 -284 -106 -21 -17 -45 -31 -52 -31 -7 0 -27 -12 -44 -26 -35 -30 -53
-25 -25 6 18 20 18 20 -18 20 -40 0 -48 13 -19 29 9 6 12 11 5 11 -6 0 -26
-12 -43 -26 -17 -15 -33 -24 -36 -21 -11 10 29 57 53 63 l24 6 -23 16 c-13 9
-49 38 -81 65 -37 32 -57 44 -57 34 0 -9 4 -18 9 -22 12 -7 36 -113 28 -121
-3 -4 -28 14 -54 39 -38 37 -45 49 -35 59 6 6 12 16 12 21 0 12 -18 -1 -30
-23 -8 -14 1 -33 46 -94 30 -42 62 -76 70 -76 8 0 14 -4 14 -9 0 -5 9 -11 20
-14 29 -8 24 -24 -9 -32 -16 -3 -55 -22 -87 -41 -48 -29 -67 -35 -104 -32 -40
3 -45 1 -48 -19 -4 -28 -22 -30 -22 -3 0 26 -17 25 -40 -2 -10 -13 -22 -20
-26 -16 -4 4 -1 15 6 23 11 13 10 19 -4 33 -17 16 -18 16 -12 -5 4 -12 2 -32
-4 -44 -11 -19 -13 -20 -28 -6 -13 13 -13 19 -2 32 11 13 10 15 -3 9 -8 -3
-25 -1 -36 5 l-21 12 21 -36 c27 -46 28 -46 120 -56 44 -5 119 -23 167 -39 48
-17 112 -33 144 -37 51 -5 58 -9 74 -38 23 -43 12 -80 -37 -127 -52 -50 -116
-81 -228 -113 -111 -31 -199 -63 -206 -75 -3 -5 13 -2 37 6 53 19 220 55 227
48 10 -9 -16 -23 -121 -63 -72 -28 -121 -55 -150 -80 -24 -22 -41 -41 -38 -43
12 -10 240 -48 285 -48 28 0 74 9 103 19 65 22 69 7 5 -21 -71 -32 -198 -36
-282 -9 -82 25 -69 14 46 -43 50 -25 95 -51 99 -57 4 -7 -1 -18 -11 -26 -18
-12 -18 -13 1 -13 40 0 139 31 196 62 33 17 81 56 109 85 31 35 49 48 49 38 0
-23 -96 -113 -163 -153 -57 -34 -184 -82 -218 -82 -42 0 -16 -18 43 -30 43 -8
69 -20 88 -39 l27 -27 57 49 c31 28 59 47 63 44 3 -3 -17 -35 -45 -71 -46 -58
-49 -65 -32 -71 30 -9 57 -50 80 -120 12 -36 26 -68 32 -71 12 -8 59 36 105
99 19 26 39 47 44 47 17 0 -33 -83 -81 -134 -37 -40 -49 -61 -54 -96 l-7 -45
67 70 c203 215 313 416 339 620 12 103 -30 224 -110 316 -56 63 -82 80 -37 23
53 -66 86 -151 90 -231 4 -66 -10 -143 -26 -143 -4 0 -7 51 -7 113 0 100 -3
118 -27 170 -15 31 -28 57 -30 57 -2 0 -2 -30 0 -67 3 -52 -1 -82 -18 -125
-12 -32 -26 -58 -31 -58 -12 0 -12 5 5 44 41 97 27 184 -40 249 -24 24 -39 46
-35 52 20 26 42 118 48 200 4 61 12 98 23 115 10 14 29 48 43 76 30 59 88 125
94 107 3 -9 16 -5 43 12 21 13 49 27 62 30 13 4 33 22 46 41 23 36 30 104 11
104 -5 0 -7 5 -4 10 3 6 4 10 0 10 -3 0 -14 -19 -25 -42z m-82 -120 c-3 -7
-20 -16 -39 -21 -45 -12 -64 -30 -100 -97 -36 -68 -199 -235 -199 -205 0 11
-3 30 -6 43 -4 13 -2 22 5 22 6 0 11 -7 11 -15 0 -8 4 -15 8 -15 18 0 141 138
165 185 37 72 48 84 92 100 50 18 68 18 63 3z m-450 -234 c23 -16 68 -94 55
-94 -9 0 -93 95 -93 104 0 10 15 6 38 -10z m-82 -20 c-3 -9 -6 -29 -6 -45 0
-16 -4 -29 -10 -29 -11 0 -14 73 -3 83 12 13 25 7 19 -9z m-127 -90 c6 -15 9
-29 6 -32 -7 -7 -34 29 -35 46 0 21 16 13 29 -14z"/>
<path d="M2760 2658 l0 -363 149 2 c180 3 233 19 314 93 66 60 105 130 115
209 21 149 -35 279 -151 356 -74 49 -148 65 -299 65 l-128 0 0 -362z"/>
<path d="M2068 1215 c-55 -18 -119 -84 -136 -143 -15 -49 -15 -135 -1 -185 16
-59 63 -105 126 -123 64 -19 102 -15 173 18 48 22 50 24 50 64 0 45 15 70 45
77 11 3 -23 5 -75 5 -52 0 -86 -3 -75 -5 11 -3 26 -10 33 -15 27 -23 3 -118
-33 -132 -38 -14 -92 -6 -118 18 -50 46 -62 83 -62 186 0 84 3 101 27 147 34
64 60 83 116 83 37 0 50 -6 78 -34 19 -19 37 -48 40 -65 12 -60 25 -43 22 28
-3 67 -9 84 -23 61 -4 -6 -17 -5 -35 5 -43 22 -100 26 -152 10z"/>
<path d="M3475 1212 c-29 -18 -31 -22 -66 -220 l-35 -202 50 7 c95 15 246 7
309 -14 31 -11 57 -18 57 -16 0 8 -102 351 -116 390 -12 34 -39 62 -50 51 -7
-7 19 -186 32 -216 24 -57 13 -122 -21 -122 -29 0 -39 43 -40 170 -2 153 -13
190 -58 190 -18 0 -45 -8 -62 -18z"/>
<path d="M980 1208 c0 -4 6 -8 14 -8 8 0 22 -10 30 -22 13 -18 16 -54 16 -185
0 -175 -6 -206 -42 -219 -35 -13 197 -17 255 -4 102 22 142 78 142 205 0 63
-5 89 -22 120 -26 49 -68 90 -108 106 -34 13 -285 20 -285 7z m262 -33 c56
-38 83 -103 83 -200 0 -129 -48 -197 -140 -199 -77 -2 -80 5 -83 229 l-3 195
53 0 c40 0 62 -6 90 -25z"/>
<path d="M1570 1208 c0 -5 6 -8 14 -8 8 0 22 -10 30 -22 13 -18 16 -54 16
-185 0 -171 -7 -206 -44 -219 -26 -9 50 -17 122 -12 45 3 46 4 21 15 -15 6
-29 22 -32 35 -4 13 -7 95 -7 183 0 129 3 165 16 183 8 12 22 22 30 22 8 0 14
3 14 8 0 4 -40 7 -90 7 -49 0 -90 -3 -90 -7z"/>
<path d="M2487 1208 c2 -5 11 -8 18 -8 30 0 35 -39 33 -222 l-3 -183 -30 -15
-30 -15 53 -3 c29 -2 74 -2 100 0 l47 3 -30 15 -30 15 0 195 c0 192 0 195 23
206 12 6 24 13 26 15 3 2 -38 4 -89 4 -51 0 -91 -3 -88 -7z"/>
<path d="M2853 1213 l-43 -4 0 -57 0 -57 20 43 c21 47 48 62 111 62 l39 0 0
-191 c0 -189 -6 -229 -35 -229 -7 0 -17 -4 -20 -10 -4 -6 27 -10 87 -10 l93 0
-30 24 -30 24 -3 196 -4 196 46 0 c64 0 96 -18 117 -65 l18 -40 0 57 1 56 -82
5 c-102 5 -229 5 -285 0z"/>
<path d="M3910 1210 c0 -3 10 -10 22 -15 32 -14 40 -66 36 -239 l-3 -148 -30
-24 -30 -24 175 2 175 3 2 70 2 70 -14 -40 c-23 -62 -56 -85 -120 -85 -46 0
-56 4 -74 26 -19 25 -21 40 -21 191 0 171 6 203 40 203 11 0 20 3 20 8 0 4
-40 7 -90 7 -49 0 -90 -2 -90 -5z"/>
<path d="M3407 1188 c-16 -25 -120 -413 -115 -429 2 -5 17 -1 33 10 30 18 31
20 59 197 15 98 31 192 37 208 12 37 5 44 -14 14z"/>
</g>
</svg>
