<?xml version="1.0" standalone="no"?>
<!DOCTYPE svg PUBLIC "-//W3C//DTD SVG 20010904//EN"
 "http://www.w3.org/TR/2001/REC-SVG-20010904/DTD/svg10.dtd">
<svg version="1.0" xmlns="http://www.w3.org/2000/svg"
 width="2000.000000pt" height="2000.000000pt" viewBox="0 0 2000.000000 2000.000000"
 preserveAspectRatio="xMidYMid meet">

<g transform="translate(0.000000,2000.000000) scale(0.100000,-0.100000)"
fill="#000000" stroke="none">
<path d="M5431 17354 c0 -11 3 -14 6 -6 3 7 2 16 -1 19 -3 4 -6 -2 -5 -13z"/>
<path d="M5485 17320 c-3 -5 -2 -10 4 -10 5 0 13 5 16 10 3 6 2 10 -4 10 -5 0
-13 -4 -16 -10z"/>
<path d="M5461 17174 c0 -11 3 -14 6 -6 3 7 2 16 -1 19 -3 4 -6 -2 -5 -13z"/>
<path d="M5815 17050 c-3 -5 -1 -10 4 -10 6 0 11 5 11 10 0 6 -2 10 -4 10 -3
0 -8 -4 -11 -10z"/>
<path d="M5960 16930 c0 -5 5 -10 11 -10 5 0 7 5 4 10 -3 6 -8 10 -11 10 -2 0
-4 -4 -4 -10z"/>
<path d="M5532 16830 c0 -14 2 -19 5 -12 2 6 2 18 0 25 -3 6 -5 1 -5 -13z"/>
<path d="M5632 16290 c0 -14 2 -19 5 -12 2 6 2 18 0 25 -3 6 -5 1 -5 -13z"/>
<path d="M6640 16280 c0 -5 5 -10 10 -10 6 0 10 5 10 10 0 6 -4 10 -10 10 -5
0 -10 -4 -10 -10z"/>
<path d="M6680 16241 c0 -5 7 -12 16 -15 14 -5 15 -4 4 9 -14 17 -20 19 -20 6z"/>
<path d="M6855 16080 c3 -5 8 -10 11 -10 2 0 4 5 4 10 0 6 -5 10 -11 10 -5 0
-7 -4 -4 -10z"/>
<path d="M6895 16040 c3 -5 8 -10 11 -10 2 0 4 5 4 10 0 6 -5 10 -11 10 -5 0
-7 -4 -4 -10z"/>
<path d="M6830 16030 c-8 -5 -12 -12 -9 -15 4 -3 12 1 19 10 14 17 11 19 -10
5z"/>
<path d="M5900 15975 c7 -9 15 -13 17 -11 7 7 -7 26 -19 26 -6 0 -6 -6 2 -15z"/>
<path d="M7000 15870 c0 -5 7 -10 16 -10 8 0 12 5 9 10 -3 6 -10 10 -16 10 -5
0 -9 -4 -9 -10z"/>
<path d="M7020 15820 c0 -5 5 -10 10 -10 6 0 10 5 10 10 0 6 -4 10 -10 10 -5
0 -10 -4 -10 -10z"/>
<path d="M7170 15780 c0 -5 5 -10 11 -10 5 0 7 5 4 10 -3 6 -8 10 -11 10 -2 0
-4 -4 -4 -10z"/>
<path d="M7200 15756 c0 -11 30 -39 36 -34 2 3 -5 13 -16 23 -11 10 -20 15
-20 11z"/>
<path d="M6180 15711 c0 -5 5 -13 10 -16 6 -3 10 -2 10 4 0 5 -4 13 -10 16 -5
3 -10 2 -10 -4z"/>
<path d="M9384 15701 c-892 -5 -1089 -8 -1078 -19 9 -8 14 -9 14 -2 0 6 5 8
11 5 6 -4 8 -13 5 -20 -2 -7 10 -26 27 -41 17 -16 25 -20 17 -10 -16 20 -21
66 -8 66 4 0 8 -4 8 -8 0 -5 12 -15 28 -23 15 -7 30 -15 33 -17 4 -1 9 9 13
23 5 21 12 25 46 25 33 0 40 -3 40 -20 0 -15 -7 -20 -30 -20 -17 0 -33 -7 -39
-17 -6 -10 -11 -14 -11 -10 0 5 -7 1 -17 -8 -12 -12 -13 -19 -4 -24 6 -4 9
-15 6 -23 -4 -9 -1 -19 6 -24 9 -5 10 -2 6 9 -4 11 -2 14 9 10 7 -3 14 -9 14
-14 0 -5 4 -9 10 -9 10 0 50 80 50 99 0 6 9 11 20 11 16 0 20 -7 20 -33 0 -18
-5 -38 -12 -45 -9 -9 -9 -12 0 -12 7 0 12 -9 12 -20 0 -24 -9 -26 -25 -4 -6 9
-18 15 -25 12 -10 -3 -9 -8 4 -20 20 -21 21 -38 1 -38 -8 0 -15 4 -15 9 0 5
-7 11 -15 15 -8 3 -15 4 -15 1 0 -9 76 -75 86 -75 7 0 14 -9 17 -20 3 -11 12
-20 20 -20 8 0 17 -7 21 -15 6 -16 36 -21 36 -6 0 15 30 41 46 41 20 0 17 -29
-3 -37 -41 -15 -44 -30 -15 -63 49 -58 94 -95 115 -95 11 0 22 -6 25 -14 3 -8
0 -11 -7 -7 -6 4 -11 3 -11 -2 0 -11 261 -272 271 -272 4 0 12 -7 19 -15 11
-13 165 -15 1274 -15 1301 0 1264 1 1651 -40 55 -6 147 -22 205 -36 58 -13
116 -27 130 -30 42 -8 134 -35 151 -44 9 -5 34 -12 55 -16 22 -4 58 -15 82
-26 24 -10 50 -18 58 -18 8 0 43 -13 77 -30 35 -16 67 -30 70 -30 15 0 164
-71 317 -151 302 -158 579 -368 841 -636 103 -106 238 -264 260 -305 6 -12 24
-32 40 -46 16 -13 29 -28 29 -34 0 -6 12 -25 28 -43 15 -18 45 -63 67 -100 22
-37 50 -81 62 -98 11 -18 42 -72 67 -122 25 -49 50 -97 55 -105 13 -21 91
-188 91 -195 0 -3 8 -24 19 -48 98 -224 181 -532 220 -817 39 -288 48 -492 31
-689 -52 -603 -183 -1041 -451 -1514 -100 -176 -282 -430 -413 -576 -86 -97
-313 -318 -347 -338 -16 -10 -29 -21 -29 -25 0 -7 -99 -84 -214 -166 -219
-156 -442 -281 -676 -377 -133 -55 -386 -140 -445 -150 -22 -3 -49 -10 -60
-15 -31 -14 -235 -52 -418 -77 -121 -17 -225 -18 -1287 -18 l-1155 0 -2 2345
c-2 2243 -5 2479 -31 2660 -9 58 -50 231 -63 265 -4 11 -17 54 -30 95 -12 41
-25 79 -30 84 -5 6 -9 16 -9 23 0 13 -90 211 -111 243 -5 8 -15 26 -21 40 -7
14 -15 27 -19 30 -3 3 -16 26 -29 52 -13 26 -38 62 -56 80 -18 18 -34 39 -34
46 0 7 -6 19 -12 27 -7 7 -29 34 -48 60 -71 96 -435 449 -453 438 -6 -3 -7 -1
-3 5 8 13 -78 102 -98 102 -8 0 -23 16 -35 35 -11 20 -28 38 -37 42 -9 3 -97
86 -196 184 -155 154 -208 199 -208 173 0 -11 29 -34 43 -34 7 0 20 -11 27
-25 7 -14 16 -25 20 -25 3 0 26 -19 50 -42 42 -40 43 -43 22 -46 -33 -5 -55 6
-48 23 4 12 0 14 -18 9 -16 -4 -27 -1 -33 9 -4 8 -18 19 -30 26 -13 6 -23 20
-23 30 0 26 -21 40 -45 31 -26 -10 -55 6 -55 30 0 13 -7 20 -20 20 -11 0 -34
9 -52 20 -57 35 -66 19 -18 -30 25 -25 34 -29 49 -20 30 16 32 13 29 -37 -2
-34 -7 -48 -18 -49 -8 -1 -24 -2 -35 -3 l-20 -2 20 -15 c14 -11 15 -15 5 -14
-8 1 -54 2 -102 1 l-88 -1 0 -65 0 -65 -70 0 -70 0 0 -65 c0 -63 -1 -65 -25
-65 -16 0 -25 -6 -25 -16 0 -9 -9 -18 -20 -21 -11 -3 -20 -10 -20 -15 0 -5 9
-6 20 -3 14 4 20 2 20 -9 0 -19 -17 -30 -25 -16 -3 5 -17 10 -31 10 -15 0 -24
6 -24 15 0 8 -4 15 -10 15 -5 0 -10 -4 -10 -9 0 -14 97 -111 111 -111 7 0 10
-3 6 -6 -5 -6 280 -294 609 -616 174 -170 267 -267 290 -304 11 -16 37 -54 60
-84 57 -76 114 -175 114 -199 0 -8 10 -33 23 -55 13 -23 29 -61 36 -86 7 -25
16 -52 21 -60 4 -9 15 -54 24 -100 10 -47 22 -104 27 -127 5 -25 9 -1160 9
-2847 l0 -2805 1398 -3 c1714 -4 1784 -2 2217 61 85 12 365 78 460 108 140 43
289 94 322 109 17 8 35 14 39 14 4 0 26 9 48 19 23 11 75 34 116 51 98 43 330
162 450 232 307 180 665 465 915 729 91 96 248 281 305 360 25 34 57 75 73 91
15 16 27 32 27 35 0 2 29 48 64 101 59 90 115 181 179 294 88 153 223 454 289
643 14 39 30 86 37 105 58 159 125 450 171 740 30 194 45 579 31 800 -18 273
-39 437 -85 665 -31 152 -104 411 -145 510 -4 11 -21 58 -36 105 -16 47 -43
118 -62 158 -18 39 -33 75 -33 78 0 5 -127 260 -169 339 -68 128 -249 401
-351 530 -19 24 -53 68 -75 96 -22 29 -52 65 -67 81 -16 16 -28 32 -28 34 0 7
-132 146 -245 257 -100 99 -304 278 -352 309 -14 9 -29 21 -32 26 -3 5 -48 38
-99 73 -51 35 -108 74 -125 87 -56 39 -107 72 -141 92 -18 10 -44 24 -57 32
-13 7 -31 18 -39 24 -45 34 -375 200 -455 229 -27 10 -75 29 -105 42 -90 39
-131 55 -215 79 -27 8 -58 19 -67 24 -10 6 -24 10 -32 10 -14 0 -105 26 -141
40 -46 19 -328 79 -420 90 -33 4 -105 14 -160 23 -211 35 -577 38 -2691 28z
m-936 -32 c-2 -6 -8 -10 -13 -10 -5 0 -11 4 -13 10 -2 6 4 11 13 11 9 0 15 -5
13 -11z m149 -11 c-3 -8 -6 -5 -6 6 -1 11 2 17 5 13 3 -3 4 -12 1 -19z m63
-252 c0 -3 -4 -8 -10 -11 -5 -3 -10 -1 -10 4 0 6 5 11 10 11 6 0 10 -2 10 -4z
m180 -16 c0 -5 -4 -10 -10 -10 -5 0 -10 5 -10 10 0 6 5 10 10 10 6 0 10 -4 10
-10z m-43 -36 c-3 -3 -12 -4 -19 -1 -8 3 -5 6 6 6 11 1 17 -2 13 -5z m-13 -80
c16 -6 23 -34 8 -34 -10 0 -32 22 -32 32 0 10 3 10 24 2z m66 -34 c0 -5 -4
-10 -10 -10 -5 0 -10 5 -10 10 0 6 5 10 10 10 6 0 10 -4 10 -10z m116 -178
c-7 -6 -55 46 -56 61 0 5 14 -6 31 -23 17 -17 28 -34 25 -38z m84 58 c0 -5 -4
-10 -10 -10 -5 0 -10 5 -10 10 0 6 5 10 10 10 6 0 10 -4 10 -10z m-70 -16 c0
-8 -5 -12 -10 -9 -6 4 -8 11 -5 16 9 14 15 11 15 -7z m130 -48 c0 -3 -4 -8
-10 -11 -5 -3 -10 -1 -10 4 0 6 5 11 10 11 6 0 10 -2 10 -4z m-20 -102 c0 -8
-4 -12 -10 -9 -5 3 -10 10 -10 16 0 5 5 9 10 9 6 0 10 -7 10 -16z m-1020 -184
c0 -35 -25 -42 -35 -10 -8 24 1 40 21 40 9 0 14 -11 14 -30z m140 4 c0 -4 -9
-14 -19 -23 -11 -9 -21 -33 -23 -51 -3 -33 -5 -35 -38 -35 -32 0 -35 3 -38 33
-3 30 -1 32 28 32 18 0 33 6 36 15 4 8 12 15 20 15 8 0 14 5 14 10 0 6 5 10
10 10 6 0 10 -3 10 -6z m94 -90 c16 -6 23 -34 9 -34 -11 1 -43 26 -43 34 0 8
14 8 34 0z m84 -68 c16 5 16 5 0 -6 -14 -8 -23 -7 -43 6 -14 9 -22 21 -19 26
3 5 15 0 25 -11 11 -12 26 -18 37 -15z m-322 3 c3 -6 2 -15 -2 -19 -12 -12
-38 5 -30 19 9 14 23 14 32 0z m-568 -113 c2 -10 -5 -24 -15 -31 -17 -13 -17
-14 0 -20 9 -4 17 -13 17 -20 0 -7 6 -15 13 -18 6 -2 9 -8 4 -12 -4 -5 -19 6
-34 23 -14 18 -32 32 -39 32 -19 0 -18 6 8 41 23 31 41 33 46 5z m57 -42 c13
-5 14 -8 3 -15 -21 -14 -48 -10 -48 6 0 16 17 19 45 9z m57 -29 c0 -5 -5 -11
-11 -13 -6 -2 -11 4 -11 13 0 9 5 15 11 13 6 -2 11 -8 11 -13z m-32 -34 c0
-14 -18 -23 -30 -16 -6 4 -8 11 -5 16 8 12 35 12 35 0z m1020 -1 c0 -5 -2 -10
-4 -10 -3 0 -8 5 -11 10 -3 6 -1 10 4 10 6 0 11 -4 11 -10z m-970 -35 c0 -8
-4 -15 -10 -15 -5 0 -10 7 -10 15 0 8 5 15 10 15 6 0 10 -7 10 -15z m1025 -15
c3 -5 1 -10 -4 -10 -6 0 -11 5 -11 10 0 6 2 10 4 10 3 0 8 -4 11 -10z m-933
-40 c19 -17 19 -20 5 -20 -9 0 -17 5 -17 10 0 6 -7 10 -15 10 -8 0 -15 -4 -15
-10 0 -5 -7 -10 -15 -10 -8 0 -15 -7 -15 -15 0 -8 -4 -15 -10 -15 -15 0 -12 9
11 41 24 34 42 36 71 9z m-12 -40 c0 -5 -7 -10 -16 -10 -8 0 -12 5 -9 10 3 6
10 10 16 10 5 0 9 -4 9 -10z m50 -35 c7 -9 10 -18 7 -21 -6 -7 -47 18 -47 28
0 14 27 9 40 -7z m1000 -31 c0 -3 -7 -1 -15 6 -8 7 -15 17 -15 22 0 5 7 3 15
-6 8 -8 15 -18 15 -22z m-1034 -11 c-7 -7 -26 7 -26 19 0 6 6 6 15 -2 9 -7 13
-15 11 -17z m1198 -128 c-4 -8 -11 -15 -16 -15 -6 0 -5 6 2 15 7 8 14 15 16
15 2 0 1 -7 -2 -15z m-969 -35 c3 -5 -3 -10 -15 -10 -12 0 -18 5 -15 10 3 6
10 10 15 10 5 0 12 -4 15 -10z m-35 -30 c0 -5 -4 -10 -10 -10 -5 0 -10 5 -10
10 0 6 5 10 10 10 6 0 10 -4 10 -10z m335 -320 c3 -5 1 -10 -4 -10 -6 0 -11 5
-11 10 0 6 2 10 4 10 3 0 8 -4 11 -10z"/>
<path d="M6245 15630 c3 -5 8 -10 11 -10 2 0 4 5 4 10 0 6 -5 10 -11 10 -5 0
-7 -4 -4 -10z"/>
<path d="M7305 15630 c3 -5 8 -10 11 -10 2 0 4 5 4 10 0 6 -5 10 -11 10 -5 0
-7 -4 -4 -10z"/>
<path d="M7392 15565 c15 -16 29 -27 31 -24 3 2 -10 15 -27 28 l-31 24 27 -28z"/>
<path d="M7432 15513 c2 -10 11 -19 21 -21 12 -2 15 1 11 12 -8 22 -36 30 -32
9z"/>
<path d="M6360 15516 c0 -2 8 -10 18 -17 15 -13 16 -12 3 4 -13 16 -21 21 -21
13z"/>
<path d="M7405 15470 c-3 -6 1 -13 10 -16 19 -8 30 0 20 15 -8 14 -22 14 -30
1z"/>
<path d="M6450 15435 c7 -9 15 -13 17 -11 7 7 -7 26 -19 26 -6 0 -6 -6 2 -15z"/>
<path d="M7520 15434 c8 -8 23 -20 34 -26 20 -11 20 -10 6 8 -18 23 -32 34
-44 34 -5 0 -3 -7 4 -16z"/>
<path d="M7470 15430 c0 -5 5 -10 10 -10 6 0 10 5 10 10 0 6 -4 10 -10 10 -5
0 -10 -4 -10 -10z"/>
<path d="M7510 15390 c0 -5 5 -10 10 -10 6 0 10 5 10 10 0 6 -4 10 -10 10 -5
0 -10 -4 -10 -10z"/>
<path d="M6500 15376 c0 -2 7 -9 15 -16 9 -7 15 -8 15 -2 0 5 -7 12 -15 16 -8
3 -15 4 -15 2z"/>
<path d="M7584 15365 c26 -19 42 -19 26 0 -7 8 -20 15 -29 15 -13 -1 -13 -3 3
-15z"/>
<path d="M7640 15340 c0 -5 5 -10 11 -10 5 0 7 5 4 10 -3 6 -8 10 -11 10 -2 0
-4 -4 -4 -10z"/>
<path d="M7550 15326 c0 -9 7 -16 16 -16 9 0 14 5 12 12 -6 18 -28 21 -28 4z"/>
<path d="M7610 15320 c0 -5 5 -10 11 -10 5 0 7 5 4 10 -3 6 -8 10 -11 10 -2 0
-4 -4 -4 -10z"/>
<path d="M6585 15300 c3 -5 8 -10 11 -10 2 0 4 5 4 10 0 6 -5 10 -11 10 -5 0
-7 -4 -4 -10z"/>
<path d="M7672 15253 c-2 -32 -8 -63 -14 -70 -17 -21 0 -28 22 -8 10 9 26 15
35 12 19 -8 20 2 1 17 -7 6 -17 25 -21 41 l-7 30 29 -25 c50 -44 63 -59 63
-71 0 -6 7 -9 15 -5 9 3 15 0 15 -9 0 -8 5 -15 10 -15 6 0 10 3 10 7 0 4 -150
153 -154 153 -1 0 -2 -26 -4 -57z"/>
<path d="M6650 15289 c0 -5 5 -7 10 -4 6 3 10 8 10 11 0 2 -4 4 -10 4 -5 0
-10 -5 -10 -11z"/>
<path d="M6630 15252 c0 -5 7 -15 15 -22 8 -7 15 -9 15 -6 0 4 -7 14 -15 22
-8 9 -15 11 -15 6z"/>
<path d="M7622 15216 c1 -10 8 -17 13 -17 15 1 12 24 -3 29 -9 3 -13 -2 -10
-12z"/>
<path d="M6675 15200 c3 -5 8 -10 11 -10 2 0 4 5 4 10 0 6 -5 10 -11 10 -5 0
-7 -4 -4 -10z"/>
<path d="M6726 15170 c4 -14 32 -49 63 -78 31 -28 59 -55 63 -60 55 -61 128
-132 137 -132 6 0 11 -5 11 -11 0 -6 26 -36 58 -65 31 -29 62 -58 67 -65 74
-83 205 -207 211 -198 3 6 3 14 -2 18 -21 15 -52 58 -59 79 -7 24 -7 24 21 6
20 -14 26 -15 22 -4 -2 7 -22 23 -44 34 -21 11 -44 27 -50 35 -8 11 -13 11
-18 2 -8 -13 20 -40 42 -41 15 0 16 -16 1 -26 -12 -7 -82 65 -105 109 -9 17
-21 27 -29 23 -14 -5 -115 105 -115 125 0 5 -8 9 -18 9 -10 0 -37 20 -61 44
-35 35 -42 49 -38 68 6 22 4 24 -21 20 -23 -3 -36 5 -72 45 -25 27 -51 58 -58
69 -11 17 -12 17 -6 -6z"/>
<path d="M7755 15160 c3 -5 8 -10 11 -10 2 0 4 5 4 10 0 6 -5 10 -11 10 -5 0
-7 -4 -4 -10z"/>
<path d="M7700 15140 c0 -5 7 -10 16 -10 8 0 12 5 9 10 -3 6 -10 10 -16 10 -5
0 -9 -4 -9 -10z"/>
<path d="M7787 15133 c-4 -3 -7 -11 -7 -17 0 -6 5 -5 12 2 6 6 9 14 7 17 -3 3
-9 2 -12 -2z"/>
<path d="M7850 15107 c0 -7 9 -18 20 -25 12 -7 18 -17 15 -23 -4 -6 -19 -2
-39 11 -46 28 -60 26 -40 -5 12 -19 25 -25 50 -25 19 0 34 5 34 10 0 18 29 11
50 -12 11 -12 20 -19 20 -15 0 15 -33 57 -44 57 -6 0 -19 9 -29 20 -19 23 -37
26 -37 7z"/>
<path d="M6968 14963 c7 -3 16 -2 19 1 4 3 -2 6 -13 5 -11 0 -14 -3 -6 -6z"/>
<path d="M7372 14125 c-6 -13 -34 -59 -62 -102 -79 -118 -90 -145 -97 -233 -5
-66 -9 -80 -23 -80 -30 0 -53 -36 -46 -70 8 -44 -17 -90 -49 -90 -18 0 -25 5
-25 20 0 11 -6 23 -14 26 -26 10 -314 -37 -446 -73 -30 -8 -68 -18 -85 -23
-207 -54 -421 -169 -603 -326 -82 -71 -184 -134 -216 -134 -34 0 -131 -52
-200 -110 -83 -67 -126 -79 -126 -36 0 16 20 46 56 85 44 48 53 62 40 67 -9 3
-69 7 -133 8 l-118 1 -3 27 c-4 32 18 48 96 74 57 18 55 34 -5 34 -65 0 -136
-37 -202 -105 -63 -65 -93 -79 -105 -49 -7 18 32 98 69 142 41 48 113 91 166
98 27 4 49 9 48 13 0 5 -47 40 -201 149 -43 30 -191 160 -281 245 -90 85 -117
101 -143 83 -17 -13 -16 -17 22 -77 67 -107 102 -212 130 -386 15 -96 15 -107
0 -121 -19 -19 -4 -29 -201 142 -177 155 -193 185 -135 264 30 42 37 62 22 62
-4 0 -31 -24 -61 -54 -58 -59 -75 -111 -50 -157 7 -13 69 -98 138 -189 69 -91
151 -199 181 -240 76 -105 108 -141 115 -130 3 6 17 10 30 10 16 0 26 -8 33
-28 15 -45 38 -61 75 -56 27 5 37 0 67 -31 26 -27 32 -39 25 -51 -6 -9 -61
-31 -123 -50 -141 -43 -214 -80 -376 -188 -143 -96 -182 -111 -276 -102 -36 3
-106 9 -156 12 -91 7 -92 7 -109 -20 -14 -22 -17 -40 -12 -91 6 -63 6 -65 -17
-65 -39 0 -60 34 -64 106 -3 41 -9 67 -17 71 -26 10 -73 -28 -119 -95 -49 -73
-73 -89 -103 -67 -17 13 -16 17 14 78 30 61 31 66 17 93 -36 69 -90 108 -168
119 -57 9 -58 -9 -1 -19 37 -7 95 -50 95 -71 0 -7 7 -18 16 -26 18 -15 15 -48
-13 -128 -21 -60 -43 -81 -84 -81 -31 0 -58 32 -77 89 -20 58 -16 70 32 91 42
18 63 36 53 46 -3 3 -22 -4 -43 -15 -21 -12 -49 -21 -63 -21 -33 0 -99 20
-140 42 -47 27 -51 14 -8 -26 20 -19 37 -41 37 -51 0 -31 63 -136 101 -168 64
-55 145 -80 277 -86 85 -5 119 -3 128 7 18 17 30 15 88 -13 31 -14 101 -33
176 -45 97 -16 177 -39 360 -105 352 -125 479 -153 639 -140 l84 7 57 -61
c130 -136 144 -271 48 -434 -79 -135 -231 -263 -452 -382 -83 -45 -287 -132
-341 -146 -16 -4 -70 -19 -119 -34 -50 -15 -171 -48 -270 -75 -100 -26 -230
-66 -291 -87 -153 -55 -340 -150 -361 -184 -8 -14 -3 -13 106 26 294 106 679
194 869 198 70 2 76 0 76 -18 0 -25 -62 -55 -279 -137 -240 -90 -272 -102
-380 -147 -112 -46 -237 -112 -341 -178 -76 -49 -249 -217 -242 -236 2 -7 30
-15 63 -19 32 -4 124 -21 204 -38 334 -71 592 -119 699 -129 228 -23 465 12
694 102 60 23 81 27 90 18 20 -20 -4 -44 -92 -88 -295 -147 -676 -192 -1031
-121 -111 22 -240 59 -311 89 -41 17 -83 33 -94 36 l-20 6 20 -23 c48 -54 205
-143 435 -244 197 -88 294 -140 337 -183 68 -68 55 -110 -51 -159 l-51 -24 90
6 c221 14 513 96 712 200 231 121 445 298 583 483 39 53 59 71 76 71 57 0 20
-68 -136 -249 -101 -118 -319 -287 -525 -407 -196 -115 -528 -239 -785 -294
-135 -29 -135 -29 -124 -40 11 -11 134 -47 274 -80 124 -29 219 -62 274 -94
51 -30 124 -108 132 -143 10 -39 9 -40 213 132 106 90 118 101 219 189 29 25
56 46 61 46 17 0 33 -29 24 -44 -11 -21 -142 -191 -280 -367 -62 -78 -110
-146 -107 -151 3 -4 16 -8 30 -8 77 0 204 -114 259 -233 32 -69 105 -278 105
-299 0 -18 80 -181 106 -215 14 -18 33 -33 42 -33 31 0 325 334 467 528 59 81
95 105 95 62 0 -26 -100 -225 -156 -310 -23 -36 -119 -145 -212 -241 l-169
-175 -8 -105 c-4 -57 -11 -129 -16 -159 -5 -30 -5 -58 0 -63 13 -13 306 301
536 574 580 687 897 1288 1024 1944 19 97 26 383 12 498 -38 310 -164 590
-385 854 -74 89 -246 263 -301 304 -34 26 -33 25 49 -74 27 -32 87 -115 133
-185 233 -348 340 -725 294 -1037 -16 -111 -71 -305 -93 -332 -12 -15 -18 -16
-36 -4 -11 6 -10 27 4 112 13 83 15 151 11 339 -5 246 -20 357 -76 527 -22 68
-93 214 -149 308 -37 62 -111 165 -119 165 -2 0 12 -29 32 -64 81 -146 107
-374 65 -569 -38 -172 -119 -384 -168 -439 -18 -21 -48 -24 -55 -5 -2 6 8 38
23 69 135 278 158 568 64 803 -48 119 -121 207 -313 372 l-34 30 41 82 c107
213 155 457 182 916 8 139 15 185 28 206 9 14 41 61 70 104 29 43 89 151 134
239 101 202 131 247 238 358 69 72 91 89 111 86 20 -2 23 -8 21 -33 -3 -28 -2
-29 15 -13 10 9 62 37 115 62 68 32 107 58 131 86 29 34 40 40 73 40 21 0 48
7 58 15 11 8 31 15 46 15 56 0 140 92 140 156 0 11 15 29 36 42 64 42 91 157
70 299 -7 46 -11 52 -34 55 -26 3 -27 6 -24 51 4 53 0 58 -16 22z m-413 -589
c9 -11 9 -22 -2 -49 -14 -33 -17 -34 -107 -51 -211 -39 -304 -123 -414 -379
-57 -132 -197 -308 -369 -464 -94 -86 -275 -271 -320 -328 -21 -27 -46 -54
-54 -58 -24 -15 -40 11 -47 76 -4 34 -12 90 -18 125 -13 69 -5 89 31 77 19 -6
30 -31 45 -106 5 -23 27 -4 264 230 163 161 275 280 302 321 23 36 75 132 115
213 98 198 160 273 270 327 33 17 83 34 110 40 28 5 77 16 110 24 33 7 63 14
66 15 4 0 12 -5 18 -13z m-1770 -937 c100 -66 186 -182 227 -304 15 -43 15
-48 1 -63 -22 -21 -32 -11 -121 118 -41 59 -106 140 -145 180 -39 40 -71 81
-71 91 0 31 42 23 109 -22z m-306 -55 c0 -16 -6 -51 -12 -79 -7 -27 -12 -94
-12 -148 l0 -98 -26 3 c-25 3 -28 8 -40 78 -21 125 2 238 55 270 26 14 37 6
35 -26z m-547 -294 c9 0 26 -25 40 -57 14 -32 37 -72 50 -90 28 -37 29 -46 9
-63 -12 -10 -20 -9 -40 4 -36 24 -104 118 -111 154 -8 40 1 66 22 58 9 -3 22
-6 30 -6z"/>
<path d="M10862 11318 l3 -1413 505 0 c516 0 566 3 725 42 242 59 453 177 636
355 209 203 340 432 398 698 38 171 45 272 32 435 -7 83 -16 161 -20 175 -5
14 -16 52 -26 85 -67 223 -134 352 -278 528 -32 40 -75 87 -95 105 -21 18 -50
45 -67 60 -124 117 -368 246 -565 299 -136 36 -235 42 -748 43 l-502 0 2
-1412z"/>
<path d="M13780 5740 c-54 -14 -121 -45 -165 -77 -84 -62 -81 -51 -219 -882
-70 -415 -125 -756 -123 -757 2 -2 73 8 158 21 388 61 765 61 1062 -1 126 -27
290 -80 370 -121 27 -13 50 -23 52 -21 1 2 -49 176 -112 388 -166 562 -217
738 -294 1002 -73 253 -94 300 -160 347 -39 29 -136 68 -145 59 -2 -3 5 -29
15 -59 32 -90 50 -197 56 -334 11 -242 37 -369 108 -520 40 -85 42 -95 42
-180 0 -73 -5 -100 -23 -140 -61 -132 -141 -146 -212 -35 -67 106 -78 208 -46
415 15 97 17 155 13 305 -6 204 -23 326 -68 465 -42 133 -37 129 -166 132 -59
1 -124 -2 -143 -7z"/>
<path d="M8270 5715 c-386 -78 -626 -378 -672 -838 -21 -212 14 -420 99 -596
84 -175 249 -308 450 -363 113 -31 354 -31 468 1 95 26 176 63 265 120 62 41
76 43 122 26 12 -5 14 23 14 162 0 99 5 185 12 210 18 61 65 98 146 113 44 8
66 17 66 26 0 12 -60 14 -365 14 -290 0 -365 -3 -365 -13 0 -8 26 -17 70 -24
85 -13 139 -46 166 -100 29 -58 26 -218 -4 -295 -32 -80 -99 -150 -180 -190
-60 -30 -75 -33 -157 -33 -85 0 -96 3 -167 37 -159 79 -289 276 -343 518 -26
117 -31 375 -10 501 38 234 145 462 272 581 174 162 431 156 594 -13 68 -70
150 -222 190 -351 48 -157 57 -95 42 300 -7 194 -15 218 -49 147 -17 -36 -49
-52 -82 -42 -9 3 -58 23 -108 45 -155 69 -319 88 -474 57z"/>
<path d="M3920 5677 c0 -9 20 -18 53 -26 106 -24 157 -81 177 -202 14 -87 13
-1192 -1 -1279 -19 -118 -83 -188 -186 -205 -28 -4 -43 -12 -43 -22 0 -13 65
-14 523 -10 589 4 608 6 756 79 123 59 204 143 270 279 64 133 91 240 98 400
22 477 -219 864 -604 971 -74 21 -103 22 -560 26 -411 3 -483 1 -483 -11z
m805 -42 c305 -54 524 -352 565 -769 21 -208 -14 -408 -101 -586 -43 -87 -65
-118 -128 -181 -81 -81 -135 -109 -251 -131 -132 -24 -279 13 -333 84 -65 85
-62 39 -65 856 l-3 742 118 0 c65 -1 154 -7 198 -15z"/>
<path d="M6210 5676 c0 -9 17 -16 48 -21 110 -15 176 -88 193 -214 6 -43 9
-316 7 -684 l-3 -612 -29 -58 c-34 -70 -91 -112 -167 -122 -32 -5 -49 -12 -49
-21 0 -12 59 -14 370 -14 303 0 370 2 370 13 0 8 -22 19 -54 26 -105 23 -156
81 -176 201 -7 44 -10 266 -8 685 l3 620 23 50 c12 27 30 58 40 68 24 27 80
53 130 62 26 4 42 12 42 21 0 12 -58 14 -370 14 -311 0 -370 -2 -370 -14z"/>
<path d="M9780 5676 c0 -9 17 -16 48 -21 110 -15 176 -88 193 -214 6 -43 9
-316 7 -684 l-3 -612 -29 -58 c-34 -70 -91 -112 -167 -122 -32 -5 -49 -12 -49
-21 0 -12 59 -14 370 -14 303 0 370 2 370 13 0 8 -22 19 -54 26 -105 23 -156
81 -176 201 -7 44 -10 266 -8 685 l3 620 23 50 c12 27 30 58 40 68 24 27 80
53 130 62 26 4 42 12 42 21 0 12 -58 14 -370 14 -311 0 -370 -2 -370 -14z"/>
<path d="M11086 5618 c-3 -40 -9 -149 -12 -242 -6 -137 -4 -168 6 -164 7 2 23
40 35 84 55 209 143 299 326 332 30 6 110 14 177 18 l123 7 -3 -754 -3 -754
-23 -50 c-12 -27 -30 -58 -40 -68 -24 -27 -80 -53 -129 -62 -27 -4 -43 -12
-43 -21 0 -12 57 -14 365 -14 308 0 365 2 365 14 0 9 -16 17 -42 21 -61 10
-113 39 -144 80 -52 69 -54 89 -54 879 l0 729 127 -7 c153 -8 236 -26 315 -68
100 -53 163 -148 196 -295 11 -47 22 -73 31 -73 11 0 12 26 7 153 -4 83 -9
191 -13 240 l-6 87 -777 0 -778 0 -6 -72z"/>
<path d="M15340 5676 c0 -8 16 -16 41 -20 48 -8 107 -36 131 -63 10 -10 28
-41 40 -68 l23 -50 0 -665 0 -665 -23 -50 c-12 -27 -30 -58 -40 -68 -24 -27
-83 -55 -131 -63 -25 -4 -41 -12 -41 -20 0 -12 111 -14 685 -14 l685 0 4 23
c3 12 7 131 11 265 4 202 3 242 -9 242 -9 0 -21 -31 -35 -92 -67 -289 -233
-414 -525 -395 -161 11 -258 80 -302 217 -16 49 -18 113 -22 637 -2 381 1 603
7 640 19 103 89 173 188 188 28 4 43 11 43 21 0 12 -54 14 -365 14 -303 0
-365 -2 -365 -14z"/>
<path d="M13475 5658 c-48 -24 -90 -62 -115 -103 -21 -35 -446 -1672 -436
-1682 1 -2 64 26 139 61 l135 64 11 54 c11 53 184 1100 222 1343 24 152 41
205 81 251 34 39 22 43 -37 12z"/>
</g>
</svg>
